<svg xmlns="http://www.w3.org/2000/svg" width="29" height="35" viewBox="0 0 29 35">
    <g fill="none" fill-rule="evenodd">
        <g fill="#F9F9F9">
            <g>
                <g>
                    <path d="M14.544.192l13.614 16.625c.156.19.156.462 0 .652L14.544 34.094c-.21.256-.604.256-.813 0L.117 17.469c-.156-.19-.156-.462 0-.652L13.73.192c.21-.256.604-.256.813 0zm.897 10.522H9.694c-.149 0-.269.12-.269.267v12.323c0 .148.12.267.269.267h6.08c2.306 0 3.801-1.561 3.801-3.655 0-1.24-.568-2.27-1.515-2.92-.145-.099-.168-.308-.035-.422.652-.56 1.033-1.438 1.033-2.499 0-1.873-1.347-3.36-3.617-3.36zm-.221 7.402c1.089 0 1.66.698 1.66 1.525 0 .845-.571 1.524-1.66 1.524h-2.943c-.148 0-.268-.12-.268-.267v-2.515c0-.147.12-.267.268-.267zm-.166-4.996c1.033 0 1.532.57 1.532 1.286 0 .827-.499 1.396-1.514 1.396h-2.795c-.148 0-.268-.12-.268-.267v-2.148c0-.147.12-.267.268-.267z" transform="translate(-122 -530) translate(122 530) translate(.53 .236)"/>
                </g>
            </g>
        </g>
    </g>
</svg>
