<?xml version="1.0" encoding="utf-8"?>
<!-- Generator: Adobe Illustrator 26.0.2, SVG Export Plug-In . SVG Version: 6.00 Build 0)  -->
<svg version="1.1" id="图层_1" xmlns="http://www.w3.org/2000/svg" xmlns:xlink="http://www.w3.org/1999/xlink" x="0px" y="0px"
	 viewBox="0 0 498 291" style="enable-background:new 0 0 498 291;" xml:space="preserve">
<style type="text/css">
	.st0{fill:none;}
	.st1{fill:none;stroke:#000000;stroke-miterlimit:10;}
	.st2{stroke:#000000;stroke-miterlimit:10;}
	.st3{fill:#FFFFFF;stroke:#000000;}
	.st4{font-family:'Helvetica';}
	.st5{font-size:12px;}
</style>
<path class="st0" d="z"/>
<g>
	<path pointer-events="stroke" class="st1" d="M41.1,80.5H7.5"/>
	<path pointer-events="all" class="st2" d="M46.4,80.5l-7,3.5l1.8-3.5L39.4,77L46.4,80.5z"/>
	<path pointer-events="stroke" class="st1" d="M87.5,80.5h33.6"/>
	<path pointer-events="all" class="st2" d="M126.4,80.5l-7,3.5l1.8-3.5l-1.8-3.5L126.4,80.5z"/>
	<ellipse pointer-events="all" class="st3" cx="67.5" cy="80.5" rx="20" ry="20"/>
	<g transform="translate(-0.5 -0.5)">
		<text transform="matrix(1 0 0 1 60.8262 84.5)" class="st4 st5">q0</text>
	</g>
	<path pointer-events="stroke" class="st1" d="M222.5,105.5v56.1"/>
	<path pointer-events="all" class="st2" d="M222.5,166.9l-3.5-7l3.5,1.8l3.5-1.8L222.5,166.9z"/>
	<ellipse pointer-events="all" class="st3" cx="222.5" cy="80.5" rx="95" ry="25"/>
	<ellipse pointer-events="all" class="st3" cx="222.5" cy="80.5" rx="85" ry="17.5"/>
	<g transform="translate(-0.5 -0.5)">
		<text transform="matrix(1 0 0 1 175.7949 84.5)" class="st4 st5">q1, q2, q3, q5, q8</text>
	</g>
	<path pointer-events="stroke" class="st1" d="M430,105.5v80H323.9"/>
	<path pointer-events="all" class="st2" d="M318.6,185.5l7-3.5l-1.8,3.5l1.8,3.5L318.6,185.5z"/>
	<ellipse pointer-events="all" class="st3" cx="430" cy="83" rx="67.5" ry="22.5"/>
	<ellipse pointer-events="all" class="st3" cx="431.8" cy="83" rx="61.2" ry="17.5"/>
	<g transform="translate(-0.5 -0.5)">
		<text transform="matrix(1 0 0 1 378.127 86.5)" class="st4 st5">q4, q7, q8, q2, q3,...</text>
	</g>
	<path pointer-events="stroke" class="st1" d="M413.6,61.2C394.5,35.7,396.7,23,420,23s30.6,10.6,21.7,31.8"/>
	<path pointer-events="all" class="st2" d="M439.7,59.7l-0.5-7.8l2.6,3l3.9-0.3L439.7,59.7z"/>
	<path pointer-events="stroke" class="st1" d="M317.5,80.5l38.6,2.2"/>
	<path pointer-events="all" class="st2" d="M361.4,82.9l-7.2,3.1l1.9-3.4l-1.6-3.6L361.4,82.9z"/>
	<path pointer-events="stroke" class="st1" d="M289.7,167.8l102.6-63"/>
	<path pointer-events="all" class="st2" d="M396.7,102.1l-4.1,6.6l-0.3-3.9l-3.3-2.1L396.7,102.1z"/>
	<ellipse pointer-events="all" class="st3" cx="222.5" cy="185.5" rx="95" ry="25"/>
	<ellipse pointer-events="all" class="st3" cx="222.5" cy="185.5" rx="85" ry="17.5"/>
	<g transform="translate(-0.5 -0.5)">
		<text transform="matrix(1 0 0 1 174.1221 189.5)" class="st4 st5">q6,q7,q8,q2,q3,q5</text>
	</g>
	<path pointer-events="stroke" class="st1" d="M207.5,210.5c-13.3,33.3-10,50,10,50s25.9-14.6,17.7-43.9"/>
	<path pointer-events="all" class="st2" d="M233.8,211.6l5.3,5.8l-3.9-0.8l-2.9,2.6L233.8,211.6z"/>
	<rect x="77.5" y="50.5" pointer-events="all" class="st0" width="60" height="30"/>
	<g transform="translate(-0.5 -0.5)">
		<text transform="matrix(1 0 0 1 104.1631 69.5)" class="st4 st5">1</text>
	</g>
	<rect x="307.5" y="50.5" pointer-events="all" class="st0" width="60" height="30"/>
	<g transform="translate(-0.5 -0.5)">
		<text transform="matrix(1 0 0 1 334.1631 69.5)" class="st4 st5">0</text>
	</g>
	<rect x="392.5" y="0.5" pointer-events="all" class="st0" width="60" height="30"/>
	<g transform="translate(-0.5 -0.5)">
		<text transform="matrix(1 0 0 1 419.1631 19.5)" class="st4 st5">0</text>
	</g>
	<rect x="302.5" y="110.5" pointer-events="all" class="st0" width="60" height="30"/>
	<g transform="translate(-0.5 -0.5)">
		<text transform="matrix(1 0 0 1 329.1631 129.5)" class="st4 st5">0</text>
	</g>
	<rect x="207.5" y="120.5" pointer-events="all" class="st0" width="60" height="30"/>
	<g transform="translate(-0.5 -0.5)">
		<text transform="matrix(1 0 0 1 234.1631 139.5)" class="st4 st5">1</text>
	</g>
	<rect x="187.5" y="260.5" pointer-events="all" class="st0" width="60" height="30"/>
	<g transform="translate(-0.5 -0.5)">
		<text transform="matrix(1 0 0 1 214.1631 279.5)" class="st4 st5">1</text>
	</g>
	<rect x="347.5" y="160.5" pointer-events="all" class="st0" width="60" height="30"/>
	<g transform="translate(-0.5 -0.5)">
		<text transform="matrix(1 0 0 1 374.1631 179.5)" class="st4 st5">1</text>
	</g>
</g>
<path class="st0" d="z"/>
</svg>
