<?xml version="1.0" encoding="utf-8"?>
<!-- Generator: Adobe Illustrator 26.0.2, SVG Export Plug-In . SVG Version: 6.00 Build 0)  -->
<svg version="1.1" id="图层_1" xmlns="http://www.w3.org/2000/svg" xmlns:xlink="http://www.w3.org/1999/xlink" x="0px" y="0px"
	 viewBox="0 0 401 441" style="enable-background:new 0 0 401 441;" xml:space="preserve">
<style type="text/css">
	.st0{fill:none;}
	.st1{fill:none;stroke:#000000;stroke-miterlimit:10;}
	.st2{stroke:#000000;stroke-miterlimit:10;}
	.st3{fill:#FFFFFF;stroke:#000000;}
	.st4{font-family:'Helvetica';}
	.st5{font-size:12px;}
</style>
<path class="st0" d="z"/>
<g>
	<path pointer-events="stroke" class="st1" d="M92.1,34.6L64.8,58.9"/>
	<path pointer-events="all" class="st2" d="M60.9,62.4l2.9-7.3l1,3.8l3.6,1.5L60.9,62.4z"/>
	<path pointer-events="stroke" class="st1" d="M148.6,34.6l46,23"/>
	<path pointer-events="all" class="st2" d="M199.4,60h-7.8l3.1-2.3v-3.9L199.4,60z"/>
	<path pointer-events="stroke" class="st1" d="M120.4,40.5l0.1,23.6"/>
	<path pointer-events="all" class="st2" d="M120.5,69.4l-3.5-7l3.5,1.7l3.5-1.8L120.5,69.4z"/>
	<ellipse pointer-events="all" class="st3" cx="120.4" cy="20.5" rx="40" ry="20"/>
	<g transform="translate(-0.5 -0.5)">
		<text transform="matrix(1 0 0 1 108.8281 24.5)" class="st4 st5">expr</text>
	</g>
	<path pointer-events="stroke" class="st1" d="M172.1,164.6l-46.5,32.2"/>
	<path pointer-events="all" class="st2" d="M121.3,199.9l3.8-6.9l0.5,3.9l3.4,1.9L121.3,199.9z"/>
	<path pointer-events="stroke" class="st1" d="M228.6,164.6l46.5,32.2"/>
	<path pointer-events="all" class="st2" d="M279.5,199.9l-7.8-1.1l3.4-1.9l0.5-3.9L279.5,199.9z"/>
	<ellipse pointer-events="all" class="st3" cx="200.4" cy="150.5" rx="40" ry="20"/>
	<g transform="translate(-0.5 -0.5)">
		<text transform="matrix(1 0 0 1 188.5 154.5)" class="st4 st5">term</text>
	</g>
	<path pointer-events="stroke" class="st1" d="M200.4,100.5v23.6"/>
	<path pointer-events="all" class="st2" d="M200.4,129.4l-3.5-7l3.5,1.8l3.5-1.8L200.4,129.4z"/>
	<ellipse pointer-events="all" class="st3" cx="200.4" cy="80.5" rx="40" ry="20"/>
	<g transform="translate(-0.5 -0.5)">
		<text transform="matrix(1 0 0 1 188.8281 84.5)" class="st4 st5">expr</text>
	</g>
	<path pointer-events="stroke" class="st1" d="M40.4,100.5v23.6"/>
	<path pointer-events="all" class="st2" d="M40.4,129.4l-3.5-7l3.5,1.8l3.5-1.8L40.4,129.4z"/>
	<ellipse pointer-events="all" class="st3" cx="40.4" cy="80.5" rx="40" ry="20"/>
	<g transform="translate(-0.5 -0.5)">
		<text transform="matrix(1 0 0 1 28.5 84.5)" class="st4 st5">term</text>
	</g>
	<rect x="110.4" y="70.5" pointer-events="all" class="st0" width="20" height="20"/>
	<g transform="translate(-0.5 -0.5)">
		<text transform="matrix(1 0 0 1 116.9961 84.5)" class="st4 st5">+</text>
	</g>
	<path pointer-events="stroke" class="st1" d="M40.4,170.5l0.1,23.6"/>
	<path pointer-events="all" class="st2" d="M40.5,199.4l-3.5-7l3.5,1.7l3.5-1.8L40.5,199.4z"/>
	<ellipse pointer-events="all" class="st3" cx="40.4" cy="150.5" rx="40" ry="20"/>
	<g transform="translate(-0.5 -0.5)">
		<text transform="matrix(1 0 0 1 25.4941 154.5)" class="st4 st5">factor</text>
	</g>
	<rect x="30.4" y="210.5" pointer-events="all" class="st0" width="20" height="20"/>
	<g transform="translate(-0.5 -0.5)">
		<text transform="matrix(1 0 0 1 37.1631 224.5)" class="st4 st5">5</text>
	</g>
	<path pointer-events="stroke" class="st1" d="M252.1,234.6l-46.5,32.2"/>
	<path pointer-events="all" class="st2" d="M201.3,269.9l3.8-6.9l0.6,3.9l3.4,1.9L201.3,269.9z"/>
	<path pointer-events="stroke" class="st1" d="M280.4,240.5v33.6"/>
	<path pointer-events="all" class="st2" d="M280.4,279.4l-3.5-7l3.5,1.8l3.5-1.8L280.4,279.4z"/>
	<path pointer-events="stroke" class="st1" d="M308.6,234.6l46.5,32.2"/>
	<path pointer-events="all" class="st2" d="M359.5,269.9l-7.8-1.1l3.4-1.9l0.5-3.9L359.5,269.9z"/>
	<ellipse pointer-events="all" class="st3" cx="280.4" cy="220.5" rx="40" ry="20"/>
	<g transform="translate(-0.5 -0.5)">
		<text transform="matrix(1 0 0 1 268.5 224.5)" class="st4 st5">term</text>
	</g>
	<ellipse pointer-events="all" class="st3" cx="120.4" cy="220.5" rx="40" ry="20"/>
	<g transform="translate(-0.5 -0.5)">
		<text transform="matrix(1 0 0 1 105.4941 224.5)" class="st4 st5">factor</text>
	</g>
	<rect x="190.4" y="210.5" pointer-events="all" class="st0" width="20" height="20"/>
	<g transform="translate(-0.5 -0.5)">
		<text transform="matrix(1 0 0 1 198.165 224.5)" class="st4 st5">*</text>
	</g>
	<path pointer-events="stroke" class="st1" d="M360.4,310.5l0.1,23.6"/>
	<path pointer-events="all" class="st2" d="M360.5,339.4l-3.5-7l3.5,1.7l3.5-1.8L360.5,339.4z"/>
	<ellipse pointer-events="all" class="st3" cx="360.4" cy="290.5" rx="40" ry="20"/>
	<g transform="translate(-0.5 -0.5)">
		<text transform="matrix(1 0 0 1 345.4941 294.5)" class="st4 st5">factor</text>
	</g>
	<path pointer-events="stroke" class="st1" d="M200.4,310.5v23.6"/>
	<path pointer-events="all" class="st2" d="M200.4,339.4l-3.5-7l3.5,1.8l3.5-1.8L200.4,339.4z"/>
	<ellipse pointer-events="all" class="st3" cx="200.4" cy="290.5" rx="40" ry="20"/>
	<g transform="translate(-0.5 -0.5)">
		<text transform="matrix(1 0 0 1 188.5 294.5)" class="st4 st5">term</text>
	</g>
	<rect x="270.4" y="280.5" pointer-events="all" class="st0" width="20" height="20"/>
	<g transform="translate(-0.5 -0.5)">
		<text transform="matrix(1 0 0 1 278.833 294.5)" class="st4 st5">/</text>
	</g>
	<path pointer-events="stroke" class="st1" d="M120.4,240.5l0.1,23.6"/>
	<path pointer-events="all" class="st2" d="M120.5,269.4l-3.5-7l3.5,1.7l3.5-1.8L120.5,269.4z"/>
	<rect x="110.4" y="280.5" pointer-events="all" class="st0" width="20" height="20"/>
	<g transform="translate(-0.5 -0.5)">
		<text transform="matrix(1 0 0 1 117.1631 294.5)" class="st4 st5">4</text>
	</g>
	<ellipse pointer-events="all" class="st3" cx="200.4" cy="360.5" rx="40" ry="20"/>
	<g transform="translate(-0.5 -0.5)">
		<text transform="matrix(1 0 0 1 185.4941 364.5)" class="st4 st5">factor</text>
	</g>
	<path pointer-events="stroke" class="st1" d="M200.4,380.5l0.1,23.6"/>
	<path pointer-events="all" class="st2" d="M200.5,409.4l-3.5-7l3.5,1.7l3.5-1.8L200.5,409.4z"/>
	<rect x="190.4" y="420.5" pointer-events="all" class="st0" width="20" height="20"/>
	<g transform="translate(-0.5 -0.5)">
		<text transform="matrix(1 0 0 1 197.1631 434.5)" class="st4 st5">3</text>
	</g>
	<rect x="350.4" y="350.5" pointer-events="all" class="st0" width="20" height="20"/>
	<g transform="translate(-0.5 -0.5)">
		<text transform="matrix(1 0 0 1 357.1631 364.5)" class="st4 st5">2</text>
	</g>
	<path pointer-events="stroke" class="st1" d="M200.4,170.5l0.1,23.6"/>
	<path pointer-events="all" class="st2" d="M200.5,199.4l-3.5-7l3.5,1.7l3.5-1.8L200.5,199.4z"/>
</g>
<path class="st0" d="z"/>
</svg>
